# Blender 4.5.1 LTS
# www.blender.org
mtllib bugatti_gauge_left.mtl
o gaugecluster_a.002
v -0.004529 0.007159 -0.008175
v -0.004534 0.007185 -0.008184
v -0.004522 0.007178 -0.008182
v -0.004552 0.007072 -0.008144
v -0.004641 0.007184 -0.008180
v -0.004568 0.006974 -0.008109
v -0.004805 0.007152 -0.008164
v -0.004558 0.006870 -0.008073
v -0.004524 0.006758 -0.008035
v -0.004630 0.006518 -0.007947
v -0.005131 0.006533 -0.007936
v -0.004889 0.007111 -0.008147
v -0.004597 0.006521 -0.007949
v -0.005034 0.007001 -0.008104
v -0.004961 0.007064 -0.008128
v -0.005108 0.006900 -0.008066
v -0.004452 0.006634 -0.007994
v -0.004472 0.006667 -0.008005
v -0.004538 0.006536 -0.007957
v -0.004561 0.006525 -0.007952
v -0.004452 0.006620 -0.007989
v -0.005183 0.006565 -0.007946
v -0.005169 0.006543 -0.007938
v -0.005180 0.006670 -0.007983
v -0.005152 0.006789 -0.008026
v -0.005187 0.006595 -0.007956
vn 0.0306 0.3305 0.9433
vn 0.0303 0.3305 0.9433
vn 0.0305 0.3305 0.9433
vn 0.0304 0.3305 0.9433
vn 0.0303 0.3304 0.9433
vn 0.0306 0.3304 0.9433
vn 0.0279 0.3292 0.9438
vn 0.0303 0.3306 0.9433
vn 0.0306 0.3303 0.9434
vt 0.917084 0.990546
vt 0.900843 1.000000
vt 0.906544 0.961628
vt 0.874376 0.834732
vt 0.760181 0.998986
vt 0.852177 0.689010
vt 0.541559 0.953230
vt 0.862523 0.534495
vt 0.905631 0.365728
vt 0.757954 0.000000
vt 0.074324 0.018046
vt 0.427212 0.892561
vt 0.802633 0.004939
vt 0.328588 0.822352
vt 0.228673 0.729753
vt 0.123596 0.577458
vt 0.999604 0.179444
vt 0.974646 0.229816
vt 0.882994 0.029670
vt 0.851814 0.012467
vt 1.000000 0.158002
vt 0.005027 0.066022
vt 0.022915 0.031971
vt 0.013474 0.228096
vt 0.058788 0.410341
vt 0.000000 0.112885
s 1
usemtl Material.002
f 3/1/1 2/2/2 1/3/3
f 1/3/3 2/2/2 4/4/4
f 2/2/2 5/5/4 4/4/4
f 4/4/4 5/5/4 6/6/4
f 7/7/4 6/6/4 5/5/4
f 7/7/4 8/8/5 6/6/4
f 8/8/5 7/7/4 9/9/4
f 10/10/3 9/9/4 7/7/4
f 10/10/3 7/7/4 11/11/4
f 7/7/4 12/12/3 11/11/4
f 13/13/3 9/9/4 10/10/3
f 15/14/6 14/15/6 12/12/3
f 14/15/6 16/16/4 12/12/3
f 12/12/3 16/16/4 11/11/4
f 17/17/4 9/9/4 13/13/3
f 18/18/7 9/9/4 17/17/4
f 19/19/8 17/17/4 13/13/3
f 20/20/8 19/19/8 13/13/3
f 21/21/9 17/17/4 19/19/8
f 16/16/4 22/22/4 11/11/4
f 22/22/4 23/23/4 11/11/4
f 24/24/2 22/22/4 16/16/4
f 25/25/8 24/24/2 16/16/4
f 26/26/1 22/22/4 24/24/2
